<svg xmlns="http://www.w3.org/2000/svg" width="1200" height="1200"><path fill="#fff" d="M24.31 607.666l568.023 568.023C280.424 1171.625 28.374 919.575 24.31 607.666zm704.532 553.631L38.703 471.159c58.521-255.942 287.592-446.9 561.274-446.9 191.31 0 360.794 93.33 465.495 236.917l-79.719 70.34c-84.931-121.794-226.035-201.504-385.776-201.504-203.383 0-376.578 129.187-442.044 309.974l602.083 602.082c146.218-52.947 258.669-176.375 296.331-329.241H806.782V600.023h263.207v-.001h105.752c0 273.683-190.956 502.753-446.899 561.275z"/></svg>