<svg xmlns="http://www.w3.org/2000/svg" width="233" height="207"><path d="M40.48 75.77h-2.11v27.88c0 10.4-7.3 17.02-16.41 17.02-8.85 0-15-5.54-15-15.08V75.77h-2.1v30.12c0 10.31 6.91 16.8 16.88 16.8 7.82 0 14.83-5.03 16.67-11.48h.09V122h1.98zM50.79 122h2.1V94.24c0-10.1 6.58-17.19 16.07-17.19 9.03 0 15.34 5.76 15.34 15.13V122h2.11V92.09c0-10.39-7-17.01-17.19-17.01-8.08 0-14.39 4.77-16.37 11.6h-.08V75.77h-1.98zm46.06 0h2.11V75.77h-2.11zm1.08-58.7c1.11 0 2.06-.94 2.06-2.06 0-1.16-.95-2.06-2.06-2.06-1.16 0-2.11.9-2.11 2.06 0 1.12.95 2.06 2.11 2.06zm13.92"/><path fill="#007ec6" d="M111.85 122H114V77.7h10.18v-1.93H114V68.8c0-6.31 2.88-8.63 7.47-8.63 1.16 0 2.24.13 3.14.43v-1.98c-.69-.26-1.89-.43-3.18-.43-5.84 0-9.58 3.05-9.58 10.31v7.27h-6.45v1.93h6.45zm20.15 0h2.11V75.77H132zm1.07-58.7c1.12 0 2.07-.94 2.07-2.06 0-1.16-.95-2.06-2.07-2.06-1.16 0-2.1.9-2.1 2.06 0 1.12.94 2.06 2.1 2.06zm29.52 13.75c10.49 0 17.54 8.13 17.54 19.99h-35.45c.51-11.99 7.6-19.99 17.91-19.99zm16.89 32.1c-1.37 6.53-7.26 11.56-16.5 11.56-11.04 0-18.35-7.91-18.35-21.66v-.08h37.64v-1.63c0-13.28-7.9-22.26-19.68-22.26-12.11 0-20.11 9.45-20.11 23.8 0 15.04 8.04 23.81 20.46 23.81 10.35 0 17.19-5.76 18.73-13.54zm28.1 13.54c9.15 0 16.29-6.36 18.22-14.53h.09V122h1.97V57.29h-2.15V89.3h-.08a18.422 18.422 0 0 0-18.05-14.22c-11.56 0-19.72 9.67-19.72 23.8 0 14.1 8.21 23.81 19.72 23.81zm.09-45.64c10.53 0 18.04 8.99 18.04 21.83 0 12.85-7.51 21.79-18.04 21.79-10.36 0-17.66-8.85-17.66-21.83 0-12.93 7.3-21.79 17.66-21.79z"/></svg>